<!-- width="396px" height="272px" -->
<svg viewBox="0 0 396 272" version="1.1" xmlns="http://www.w3.org/2000/svg" xmlns:xlink="http://www.w3.org/1999/xlink">
  <g id="Page-1" stroke="none" stroke-width="1" fill="none" fill-rule="evenodd">
    <path
      class="primary-fill"
      d="M395.676,179.452 L395.675,232.7 C395.675,236.371 394.655,239.534 392.615,242.183 C390.575,244.836 387.923,246.162 384.659,246.162 L338.759,246.162 L338.759,189.859 C338.759,182.512 336.923,175.882 333.251,169.966 C329.579,164.05 324.68,159.46 318.563,156.196 L275.111,136 C273.071,134.776 271.133,133.348 269.297,131.716 C267.463,130.084 265.525,128.248 263.485,126.208 C274.09,109.888 279.397,91.732 279.397,71.74 C279.397,59.092 277.153,46.648 272.665,34.408 C276.337,31.96 280.318,29.92 284.599,28.288 C288.884,26.656 293.474,25.84 298.37,25.84 C312.243,25.84 323.97,31.552 333.558,42.976 C343.149,54.4 347.943,68.068 347.943,83.98 C347.943,95.404 345.594,105.604 340.905,114.58 C336.213,123.556 329.991,130.492 322.239,135.388 L388.947,167.212 C393.432,169.66 395.676,173.74 395.676,179.452 Z M317.952,189.856 L317.953,246.164 L317.953,255.956 C317.953,260.444 316.626,264.215 313.974,267.278 C311.325,270.338 308.163,271.868 304.491,271.868 L90.291,271.868 C86.211,271.868 82.845,270.338 80.193,267.278 C77.541,264.218 76.215,260.444 76.215,255.956 L76.215,246.164 L76.215,189.861 C76.215,182.515 79.275,177.415 85.395,174.559 L145.371,147.019 L168.627,136.003 C158.019,129.067 149.655,119.479 143.535,107.239 C138.231,95.815 135.579,83.983 135.579,71.743 C135.579,65.215 136.599,58.279 138.639,50.935 C142.311,36.247 149.451,24.109 160.059,14.521 C170.667,4.933 183.111,0.139 197.391,0.139 C211.671,0.139 224.216,5.035 235.029,14.827 C245.841,24.619 253.083,37.267 256.755,52.771 C257.571,56.035 258.183,59.197 258.591,62.257 C258.999,65.317 259.203,68.479 259.203,71.743 C259.203,77.863 258.489,83.779 257.058,89.491 C255.63,95.203 253.898,100.507 251.859,105.403 C249.003,111.931 245.43,117.745 241.149,122.845 C236.865,127.945 232.071,132.127 226.764,135.391 L251.244,147.016 L309.384,175.168 C315.096,177.616 317.952,182.509 317.952,189.856 Z M56.016,189.856 L56.016,246.154 L11.34,246.154 C8.076,246.154 5.424,244.827 3.384,242.175 C1.344,239.526 0.324,236.364 0.324,232.692 L0.324,179.448 C0.324,173.328 2.568,169.248 7.056,167.208 L74.988,135.996 C66.828,131.1 60.3,124.062 55.404,114.882 C50.508,105.702 48.06,95.4 48.06,83.976 C48.06,68.064 52.854,54.396 62.442,42.972 C72.03,31.548 83.76,25.836 97.632,25.836 C106.608,25.836 114.768,28.488 122.112,33.792 C120.072,39.504 118.338,45.522 116.91,51.846 C115.482,58.17 114.768,64.8 114.768,71.736 C114.768,81.936 116.196,91.728 119.052,101.112 C121.908,110.496 125.988,119.064 131.292,126.816 C128.844,130.08 125.58,132.936 121.5,135.384 L76.212,156.193 C70.092,159.457 65.196,164.047 61.524,169.963 C57.852,175.879 56.016,182.509 56.016,189.856 Z"
      id="join-group"></path>
  </g>
</svg>
