<!-- width="378px" height="272px" -->
<svg viewBox="0 0 378 272" version="1.1" xmlns="http://www.w3.org/2000/svg" xmlns:xlink="http://www.w3.org/1999/xlink">
  <g id="Page-1" stroke="none" stroke-width="1" fill="none" fill-rule="evenodd">
    <g id="join-group" class="primary-fill">
      <path
        d="M377.676,179.452 L377.675,232.7 C377.675,236.371 376.655,239.534 374.615,242.183 C372.575,244.836 369.923,246.162 366.659,246.162 L320.759,246.162 L320.759,189.859 C320.759,182.512 318.923,175.882 315.251,169.966 C311.579,164.05 306.68,159.46 300.563,156.196 L257.111,136 C255.071,134.776 253.133,133.348 251.297,131.716 C249.463,130.084 247.525,128.248 245.485,126.208 C256.09,109.888 261.397,91.732 261.397,71.74 C261.397,59.092 259.153,46.648 254.665,34.408 C258.337,31.96 262.318,29.92 266.599,28.288 C270.884,26.656 275.474,25.84 280.37,25.84 C294.243,25.84 305.97,31.552 315.558,42.976 C325.149,54.4 329.943,68.068 329.943,83.98 C329.943,95.404 327.594,105.604 322.905,114.58 C318.213,123.556 311.991,130.492 304.239,135.388 L370.947,167.212 C375.432,169.66 377.676,173.74 377.676,179.452 Z M80.6497781,271.868 C81.0490682,271.810047 81.448029,271.745358 81.8465,271.6739 C82.4995,271.5579 83.0935,271.4269 83.6755,271.2799 C83.9775,271.2039 84.1665,271.1529 84.4715,271.0679 C85.6745,270.7559 86.6895,270.4579 87.8825,270.0259 C88.8005,269.6889 89.5615,269.3709 90.3665,269.0079 C91.6925,268.4059 92.8815,267.7749 94.1615,267.0099 C94.4105,266.8629 94.6095,266.7449 94.8695,266.5839 C95.2555,266.3439 95.6425,266.0919 96.0435,265.8129 C97.7935,264.6059 99.4225,263.2859 101.0655,261.6599 L143.4105,219.3079 C150.3265,212.3929 154.0005,203.1749 154.0005,193.5229 C154.0005,184.0129 150.2775,174.8039 143.4095,167.9359 L124.027761,148.554161 L127.371,147.019 L150.627,136.003 C140.019,129.067 131.655,119.479 125.535,107.239 C120.231,95.815 117.579,83.983 117.579,71.743 C117.579,65.215 118.599,58.279 120.639,50.935 C124.311,36.247 131.451,24.109 142.059,14.521 C152.667,4.933 165.111,0.139 179.391,0.139 C193.671,0.139 206.216,5.035 217.029,14.827 C227.841,24.619 235.083,37.267 238.755,52.771 C239.571,56.035 240.183,59.197 240.591,62.257 C240.999,65.317 241.203,68.479 241.203,71.743 C241.203,77.863 240.489,83.779 239.058,89.491 C237.63,95.203 235.898,100.507 233.859,105.403 C231.003,111.931 227.43,117.745 223.149,122.845 C218.865,127.945 214.071,132.127 208.764,135.391 L233.244,147.016 L291.384,175.168 C297.096,177.616 299.952,182.509 299.952,189.856 L299.953,246.164 L299.953,255.956 C299.953,260.444 298.626,264.215 295.974,267.278 C293.325,270.338 290.163,271.868 286.491,271.868 L80.6497781,271.868 Z M65.455819,246.110396 C62.682797,243.337374 61.3004597,239.706234 61.3004597,236.080103 C61.3004597,232.447294 62.682797,228.821163 65.455819,226.04981 L83.2125091,208.291451 L14.7578125,208.291451 C6.92456788,208.291451 0.573829921,201.940713 0.573829921,194.107468 C0.573829921,186.269215 6.92456788,179.916808 14.7578125,179.916808 L84.1724655,179.916808 L65.455819,161.200161 C62.682797,158.428809 61.3004597,154.802677 61.3004597,151.169868 C61.3004597,147.545407 62.682797,143.912598 65.455819,141.141245 C68.8599081,137.730478 73.5745463,136.438293 77.9886765,137.221284 C78.3158964,137.286394 78.621413,137.384894 78.935277,137.468368 C79.4244375,137.586902 79.9135979,137.717122 80.3827244,137.899096 C80.7015969,138.015961 81.0154609,138.14785 81.3276555,138.291427 C81.8234938,138.511799 82.2942899,138.773909 82.7700944,139.054383 C83.0171788,139.202968 83.2659327,139.339866 83.5063392,139.503476 C84.2041858,139.992636 84.8819985,140.520195 85.5080571,141.146254 L127.852988,183.491185 C130.624341,186.262537 132,189.895346 132,193.521477 C132,197.354625 130.624341,200.980756 127.852988,203.752109 L85.5080571,246.103718 C84.8819985,246.723098 84.2108638,247.250657 83.5063392,247.73314 C83.2659327,247.903427 83.0105008,248.040326 82.7634164,248.19058 C82.2942899,248.471054 81.8234938,248.724816 81.3343334,248.946858 C81.0154609,249.090435 80.6949189,249.227333 80.3760465,249.344197 C79.9069199,249.514485 79.4377934,249.644705 78.9603194,249.768247 C78.6347689,249.846713 78.3158964,249.9569 77.9819985,250.015332 C73.5745463,250.811678 68.8599081,249.521163 65.455819,246.110396 Z"></path>
    </g>
  </g>
</svg>
