<!-- width="198px" height="180px" -->
<svg viewBox="0 0 198 180" version="1.1" xmlns="http://www.w3.org/2000/svg" xmlns:xlink="http://www.w3.org/1999/xlink">
  <g id="Page-1" stroke="none" stroke-width="1" fill-rule="evenodd">
    <path
      class="primary-fill"
      d="M38.481,151.219 L1.305,161.178 L11.482,123.205 C4.472,111.155 0.431,97.155 0.431,82.208 C0.431,37.134 36.972,0.59 82.051,0.59 C127.122,0.59 163.666,37.134 163.666,82.208 C163.666,127.282 127.122,163.828 82.051,163.828 C66.023,163.832 51.091,159.199 38.481,151.219 Z M196.76,176.976 L162.942,167.917 C151.465,175.174 137.885,179.391 123.312,179.391 C112.922,179.391 103.041,177.249 94.064,173.392 C139.128,167.492 174.045,128.865 174.045,82.215 C174.045,68.697 171.086,55.864 165.829,44.289 C185.011,57.716 197.559,79.959 197.559,105.142 C197.559,118.738 193.886,131.472 187.509,142.435 L196.76,176.976 Z"
      id="new-chat"></path>
  </g>
</svg>
