<!-- width="185px" height="179px" -->
<svg viewBox="0 0 185 179" version="1.1" xmlns="http://www.w3.org/2000/svg" xmlns:xlink="http://www.w3.org/1999/xlink">
  <g id="Page-1" stroke="none" stroke-width="1" fill="none" fill-rule="evenodd">
    <g id="new-chat" class="primary-fill">
      <path
        d="M91.9120615,14.9813458 C86.0154102,19.1325544 82.1604278,25.9874566 82.1604278,33.7455619 C82.1604278,46.4204096 92.4524847,56.6844219 105.124972,56.6844219 L107.043886,56.6844219 L107.043886,58.5559049 C107.043886,71.2404692 117.372865,81.4965855 130.037643,81.4965855 C136.638311,81.4965855 142.603775,78.7107809 146.803319,74.2474266 C147.469559,78.2248945 147.816283,82.3101906 147.816283,86.4761864 C147.816283,127.175679 114.724126,160.174829 73.9104055,160.174829 C59.396365,160.178441 45.8747996,155.995081 34.4559045,148.789553 L12.3768419,154.68732 C5.97840354,156.396473 2.18610648,152.593083 3.90503786,146.197685 L10.0071538,123.494359 C3.65929856,112.613832 0,99.972555 0,86.4761864 C0,45.7766936 33.0894404,12.77935 73.9104055,12.77935 C80.11944,12.77935 86.1497678,13.5430359 91.9120615,14.9813458 Z M181.163073,165.142169 C182.882555,171.543906 179.081587,175.345946 172.677154,173.635273 L153.652824,168.55373 C143.259909,175.106426 130.962637,178.914159 117.766162,178.914159 C108.357572,178.914159 99.4099032,176.980044 91.2808452,173.497372 C132.088227,168.169977 163.707066,133.291792 163.707066,91.1692526 C163.707066,78.9631971 161.027565,67.3756613 156.267126,56.9240344 C173.637249,69.0479216 185,89.1322012 185,111.871149 C185,124.147634 181.673941,135.645778 175.899295,145.544801 L181.163073,165.142169 Z M154.913798,24.8048814 C159.863468,24.8048814 163.878342,28.8100732 163.878342,33.7455619 C163.878342,38.6792301 159.863468,42.6917041 154.913798,42.6917041 L139.029574,42.6844219 L139.029574,58.5559049 C139.029574,63.4913936 134.987313,67.4965855 130.037643,67.4965855 C125.087973,67.4965855 121.043886,63.4913936 121.043886,58.5559049 L121.043886,42.6844219 L105.124972,42.6844219 C100.175302,42.6844219 96.1604278,38.6792301 96.1604278,33.7455619 C96.1604278,28.8100732 100.175302,24.8048814 105.124972,24.8048814 L121.043886,24.8048814 L121.043886,8.94068055 C121.043886,4.00519186 125.087973,0 130.037643,0 C134.987313,0 139.029574,4.00519186 139.029574,8.94068055 L139.029574,24.8048814 L154.913798,24.8048814 Z"></path>
    </g>
  </g>
</svg>
