<!-- width="268px" height="173px" -->
<svg viewBox="0 0 268 173" version="1.1" xmlns="http://www.w3.org/2000/svg" xmlns:xlink="http://www.w3.org/1999/xlink">
  <g id="Page-1" stroke="none" stroke-width="1" fill="none" fill-rule="evenodd">
    <path
      class="primary-fill"
      d="M239.188,0.5 C230.811,0.5 223.352,4.134 218.112,9.852 L218.036,9.795 L134,101.48 L49.946,9.794 L49.869,9.851 C44.648,4.133 37.189,0.499 28.812,0.499 C12.977,0.499 0.124,13.351 0.124,29.187 C0.124,36.665 3.05,43.397 7.736,48.522 L7.659,48.579 L112.847,163.329 C118.298,169.239 125.948,172.624 133.999,172.624 C142.05,172.624 149.7,169.239 155.132,163.329 L260.32,48.58 L260.244,48.523 C264.949,43.398 267.875,36.666 267.875,29.188 C267.875,13.352 255.023,0.5 239.188,0.5 Z"
      id="triangle-down"></path>
  </g>
</svg>
