<?xml version="1.0" encoding="UTF-8"?>
<svg width="633px" height="633px" viewBox="0 0 633 633" version="1.1" xmlns="http://www.w3.org/2000/svg" xmlns:xlink="http://www.w3.org/1999/xlink">
    <!-- Generator: Sketch 43.1 (39012) - http://www.bohemiancoding.com/sketch -->
    <title>Page 1</title>
    <desc>Created with Sketch.</desc>
    <defs>
        <polygon id="path-1" points="800.148 235.9067 800.148 0.9887 0.1484 0.9887 0.1484 235.9067 800.148 235.9067"></polygon>
    </defs>
    <g id="Page-1" stroke="none" stroke-width="1" fill="none" fill-rule="evenodd">
        <g id="wongwan-logo" transform="translate(-227.000000, -215.000000)">
            <g id="Page-1">
                <polygon id="Fill-1" fill="#2E3092" points="0 1005 1052 1005 1052 0 0 0"></polygon>
                <g id="Group-6" transform="translate(202.000000, 190.000000)" fill="#FEFEFE">
                    <path d="M341.5762,25.9141 C238.6442,24.3171 139.2632,79.3241 81.3332,162.7811 C68.6572,181.0421 25.7932,249.2831 25.7932,341.6961 C25.7932,516.0991 167.1742,657.4791 341.5762,657.4791 C515.9782,657.4791 657.3592,516.0991 657.3592,341.6961 C657.3592,157.0221 495.3512,28.2991 341.5762,25.9141" id="Fill-2"></path>
                    <path d="M341.5762,0.612539133 C230.396498,-1.11242477 123.052329,58.3021583 60.4805332,148.446374 C46.7888347,168.170585 0.490242017,241.879578 0.490242017,341.697417 C0.490242017,530.074924 153.199773,682.783375 341.5762,682.783375 C529.952627,682.783375 682.662158,530.074924 682.662158,341.697417 C682.662158,142.225919 507.672833,3.18864364 341.5762,0.612539133" id="Fill-4"></path>
                </g>
                <path d="M582.838354,353.668103 C572.109457,353.146293 560.897103,349.239278 550.595141,354.035489 C550.148019,354.244415 549.675665,354.500778 549.518214,354.961021 C549.263869,355.676617 549.892665,356.379092 550.473015,356.863558 C555.656798,361.199526 562.616956,362.893138 567.469688,367.490516 C570.01717,369.896696 571.741061,373.52918 570.872051,376.931542 C570.031301,380.245086 566.904478,382.588689 563.608092,383.494034 C555.574035,385.708447 547.312885,381.915483 539.210196,382.80468 C530.27483,383.791779 521.573624,386.994299 514.243051,392.201297 C502.085989,400.827815 493.514983,415.425373 488.313032,429.123642 C487.154351,432.171739 484.891492,440.445001 481.275158,440.385452 C480.921901,440.380406 480.563598,440.303699 480.195203,440.135145 C477.25712,438.79479 474.248386,426.855737 473.050342,423.844984 C468.536736,412.434807 464.485392,400.585582 457.248685,390.54503 C445.901084,374.785763 429.146643,366.374226 409.67213,366.869794 C397.588747,367.185706 385.838434,371.451023 373.766153,368.33934 C371.966565,367.874051 370.122567,367.25232 368.792305,365.952337 C366.563762,363.800502 366.231701,360.246744 367.167326,357.297558 C369.85712,348.814361 378.29187,343.819318 385.937345,340.520913 C388.291042,339.510601 391.271515,337.923975 389.296308,334.67099 C382.404783,328.956312 372.756849,330.2785 366.484027,323.459645 C364.187861,320.976758 363.068544,317.587516 363.776066,314.281038 C366.330613,302.304641 386.03222,297.845537 395.984963,298.339087 C401.333263,298.613617 414.589457,304.278839 418.565104,298.642887 C421.844332,293.981923 405.008138,283.158151 409.212897,274.036064 C419.893348,250.856397 458.449756,283.839431 466.776511,293.633713 C472.537616,300.39201 477.48825,307.848745 481.649609,315.692044 C485.197311,322.368588 487.499533,329.833397 490.263006,336.857141 C490.456793,337.343626 490.697007,337.874519 491.188538,338.036008 C491.681078,338.186394 492.198851,337.883603 492.632851,337.592924 C496.483345,335.01819 500.253094,332.130572 504.28829,329.828351 C510.163446,326.484528 516.652259,323.49497 523.413584,321.122098 C532.404461,317.969033 541.84145,315.916109 550.882792,315.588086 C565.317853,315.082425 578.656809,320.228864 589.519945,329.619425 C593.887201,333.396239 598.88931,338.42358 599.213297,344.573268 C599.674548,353.607544 589.442228,353.977959 582.838354,353.668103 Z" id="Combined-Shape" fill="#38B449" transform="translate(481.396967, 353.163829) rotate(1.000000) translate(-481.396967, -353.163829) "></path>
                <path d="M918.0029,635.9063 C912.607439,643.2863 902.461898,655.0363 886.082998,663.9063 C859.848829,678.1163 834.572257,675.7463 825.326458,674.4063 C816.617312,692.2063 802.961579,715.9863 782.004169,740.6863 C740.668894,789.4163 695.39151,812.8863 680.659478,820.0363 C598.474709,859.9163 521.727295,850.4663 496.440748,846.2863 C489.41837,845.1163 420.582104,833.0163 361.420561,788.5463 C334.537021,768.3463 314.407533,745.0263 311.605565,741.7563 C277.880193,702.3063 254.647492,655.9063 255.136266,602.8163 C255.255966,590.5363 256.542737,578.6763 258.906804,567.2963 C274.517631,492.1963 345.220214,437.2763 418.236989,422.0763 C501.328483,404.7863 585.986047,438.5563 640.698754,501.9063 C672.119907,538.2863 693.367589,580.6763 713.487102,624.0163 C724.65807,648.0763 737.525781,666.9663 762.393379,677.9063 C771.779825,682.0363 783.90041,687.3663 797.305772,682.9063 C806.223394,679.9463 811.950024,673.8963 814.902615,670.1763 C812.4777,668.9563 780.239597,652.0263 776.358336,615.9063 C773.485545,589.1763 788.099872,569.9563 791.32079,565.9063 C797.874345,571.4163 809.286707,582.4663 817.365435,600.1163 C825.135936,617.1163 826.233183,632.4063 826.233183,640.9063 C832.287989,636.0563 844.716801,627.5163 862.562021,624.5463 C890.531835,619.8863 912.057818,632.2163 918.0029,635.9063" id="Fill-7" fill="#38B449"></path>
                <g id="Group-13" transform="translate(368.658380, 481.931585)">
                    <path d="M58.0209869,32.9055671 C55.8843928,48.7411604 41.3131672,59.8465479 25.4775739,57.7099538 C9.64053887,55.5733597 -1.46484855,41.0035758 0.673187224,25.1665408 C2.8097813,9.33094748 17.3810069,-1.77443994 33.2166002,0.362154137 C49.0521935,2.50018991 60.1575809,17.0699738 58.0209869,32.9055671" id="Fill-9" fill="#FEFEFE"></path>
                    <path d="M42.4438897,26.4235559 C40.9575007,37.4424415 30.8194916,45.1699343 19.800606,43.6835453 C8.78172032,42.1942729 1.05566928,32.0577055 2.54205828,21.0402615 C4.02844727,10.0213759 14.1664564,2.29388315 25.185342,3.78027215 C36.2042277,5.26810284 43.9317204,15.4046703 42.4438897,26.4235559" id="Fill-11" fill="#006737"></path>
                </g>
                <path d="M516.7998,595.2959 C536.5038,624.2589 522.8778,667.8749 522.8778,667.8749 C522.8778,667.8749 477.3048,664.5319 457.6008,635.5689 C437.8968,606.6069 451.5228,562.9899 451.5228,562.9899 C451.5228,562.9899 497.0948,566.3319 516.7998,595.2959" id="Fill-14" fill="#006737"></path>
                <g id="Group-34" transform="translate(250.000000, 547.000000)">
                    <path d="M37.4819,113.1807 C15.4229,60.2267 24.6309,13.8537 24.7269,13.3907 L26.6129,13.8267 C16.9529,6.0767 12.0679,0.0157 12.0679,0.0157 C-28.7071,123.8667 76.2369,205.0777 149.6589,234.0787 C172.5889,243.1357 196.1819,248.5947 218.8109,251.6037 C170.7739,238.0947 130.8359,218.8147 99.8729,194.1517 C71.4099,171.4807 50.4189,144.2377 37.4819,113.1807" id="Fill-16" fill="#FEFEFE"></path>
                    <path d="M88.9912,135.5293 C65.8982,93.8143 66.5442,54.4113 68.3312,37.2303 C50.7062,30.7893 37.1722,22.1173 27.7962,14.7633 C26.7972,20.4283 20.2522,63.2463 40.5382,111.7893 C60.5682,159.7153 111.6182,223.2183 241.0802,253.5843 L241.0282,253.8343 C250.7062,254.5003 260.0892,254.7603 269.0312,254.7093 C223.0042,242.5163 184.1252,225.6363 153.3412,204.4063 C125.1952,184.9943 103.5452,161.8223 88.9912,135.5293" id="Fill-18" fill="#FEFEFE"></path>
                    <path d="M352.9336,242.4102 C85.2166,251.4822 136.1466,46.1102 136.1466,46.1102 C110.7506,48.0592 89.1786,44.3652 71.4956,38.3442 C69.8216,55.3472 69.4946,93.3562 91.8376,133.6612 C123.6936,191.1292 187.8836,231.7332 282.6106,254.3892 C324.8226,252.6622 354.2026,244.5192 352.9336,242.4102" id="Fill-20" fill="#FEFEFE"></path>
                    <path d="M72.8306,29.0127 L69.6606,28.1957 C69.6316,28.3227 68.9196,31.5737 68.3316,37.2307 C69.3716,37.6107 70.4276,37.9807 71.4956,38.3437 C72.0696,32.5077 72.8016,29.1407 72.8306,29.0127" id="Fill-26" fill="#5D5E5E"></path>
                    <polygon id="Fill-32" fill="#FEFEFE" points="0 61.4063 2 91.4063 5 106.4063 14 128.9063 23.5 144.9063 43 154.9063 30 132.4063 6 58.9063"></polygon>
                </g>
                <path d="M254,563 L275,545 L307,575 L332,585 L345,593 C345,593 358,650 360,655 C362,660 379,706 379,706 C379,706 373,719 359,717 C345,715 291,701 291,701 C291,701 275,671 275,663 C275,655 254,583 254,583 L254,563 Z" id="Path-4" fill="#FFFFFF"></path>
                <path d="M276.9639,529.415 C276.6309,527.445 275.8899,525.599 274.8069,523.983 C274.7709,523.874 274.7279,523.767 274.6929,523.656 L274.6189,523.726 C272.3889,520.557 268.8679,518.318 264.7119,517.87 C257.0479,517.043 249.8009,522.555 249.3389,530.248 C248.1879,549.411 303.1109,603.46 402.7149,595.398 C402.7149,595.398 299.8339,578.561 276.9639,529.415" id="Fill-30" fill="#006737"></path>
                <path d="M334,579 C334,579 332,597 337,626 C337,626 345,683 384,719" id="Path-3" stroke="#006738" stroke-width="9"></path>
                <path d="M275.178438,543.55954 C273.573061,589.531518 282.589783,617.863456 295.364168,649.974489 C295.364168,649.974489 307.064968,687.405643 354.708937,727.09257" id="Path-3" stroke="#006738" stroke-width="9" transform="translate(314.851163, 635.326055) rotate(-2.000000) translate(-314.851163, -635.326055) "></path>
                <g id="Group-40" transform="translate(106.767343, 691.000000)">
                    <path d="M800.1484,21.0127 C755.7014,21.0127 711.2544,0.9887 711.2544,0.9887 C711.2544,0.9887 666.8074,21.0127 622.3614,21.0127 C577.9164,21.0127 533.4714,0.9887 533.4714,0.9887 C533.4714,0.9887 489.0284,21.0127 444.5844,21.0127 C400.1404,21.0127 355.6964,0.9887 355.6964,0.9887 C355.6964,0.9887 311.2524,21.0127 266.8084,21.0127 C222.3644,21.0127 177.9204,0.9887 177.9204,0.9887 C177.9204,0.9887 133.4784,21.0127 89.0354,21.0127 C44.5914,21.0127 0.1484,0.9887 0.1484,0.9887 L0.1484,235.9067 L800.1484,235.9067 L800.1484,21.0127 Z" id="Fill-35" fill="#FEFEFE"></path>
                    <g id="Group-39" transform="translate(174.000000, 26.000000)">
                        <mask id="mask-2" fill="white">
                            <use xlink:href="#path-1"></use>
                        </mask>
                        <g id="Clip-38"></g>
                        <path d="M800.1484,21.0127 C755.7014,21.0127 711.2544,0.9887 711.2544,0.9887 C711.2544,0.9887 666.8074,21.0127 622.3614,21.0127 C577.9164,21.0127 533.4714,0.9887 533.4714,0.9887 C533.4714,0.9887 489.0284,21.0127 444.5844,21.0127 C400.1404,21.0127 355.6964,0.9887 355.6964,0.9887 C355.6964,0.9887 311.2524,21.0127 266.8084,21.0127 C222.3644,21.0127 177.9204,0.9887 177.9204,0.9887 C177.9204,0.9887 133.4784,21.0127 89.0354,21.0127 C44.5914,21.0127 0.1484,0.9887 0.1484,0.9887 L0.1484,235.9067 L800.1484,235.9067 L800.1484,21.0127 Z" id="Fill-37" fill="#38B449" mask="url(#mask-2)"></path>
                    </g>
                </g>
                <path d="M1083.23266,765.907793 C1038.78566,765.907793 994.338657,745.883793 994.338657,745.883793 C994.338657,745.883793 949.891657,765.907793 905.445657,765.907793 C861.000657,765.907793 816.555657,745.883793 816.555657,745.883793 C816.555657,745.883793 772.112657,765.907793 727.668657,765.907793 C683.224657,765.907793 638.780657,745.883793 638.780657,745.883793 C638.780657,745.883793 594.336657,765.907793 549.892657,765.907793 C505.448657,765.907793 461.004657,745.883793 461.004657,745.883793 C461.004657,745.883793 416.562657,765.907793 372.119657,765.907793 C327.675657,765.907793 283.232657,745.883793 283.232657,745.883793 L283.232657,980.801793 L1083.23266,980.801793 L1083.23266,765.907793 Z" id="Fill-35" fill="#FEFEFE"></path>
            </g>
        </g>
    </g>
</svg>